<svg width="219" height="32" viewBox="0 0 219 32" fill="none" xmlns="http://www.w3.org/2000/svg">
<g clip-path="url(#clip0_2142_3559)">
<path d="M218.362 15.9126C218.362 24.6329 211.485 31.7011 203.001 31.7011C194.516 31.7011 187.639 24.6329 187.639 15.9126C187.639 7.19236 194.518 0.124146 203.001 0.124146C211.483 0.124146 218.362 7.19236 218.362 15.9126Z" fill="#0065FF"/>
<path d="M197.474 19.93L198.513 19.6451C198.685 20.3899 198.628 21.0545 198.343 21.6369C198.057 22.2213 197.591 22.6496 196.945 22.9218C196.134 23.2657 195.374 23.2678 194.662 22.9324C193.952 22.5969 193.393 21.9196 192.985 20.9047C192.722 20.2485 192.597 19.6282 192.611 19.0459C192.626 18.4636 192.8 17.9572 193.135 17.5268C193.469 17.0963 193.89 16.7735 194.399 16.5583C195.042 16.2861 195.635 16.2313 196.179 16.3916C196.721 16.5541 197.175 16.917 197.536 17.4824L196.622 18.05C196.366 17.6808 196.078 17.4424 195.758 17.3369C195.44 17.2293 195.114 17.2483 194.779 17.3896C194.274 17.6027 193.937 17.9635 193.771 18.4699C193.605 18.9763 193.683 19.6325 194.005 20.4384C194.331 21.2571 194.724 21.7867 195.175 22.0272C195.629 22.2677 196.101 22.2846 196.592 22.0778C196.986 21.9112 197.265 21.6474 197.429 21.2887C197.593 20.9279 197.608 20.4764 197.472 19.93H197.474Z" fill="white"/>
<path d="M198.62 18.493C198.168 17.3663 198.139 16.4021 198.531 15.6024C198.86 14.9357 199.392 14.4483 200.122 14.1382C200.937 13.7943 201.711 13.7858 202.448 14.115C203.185 14.4441 203.746 15.0918 204.134 16.0582C204.448 16.841 204.581 17.5056 204.532 18.0521C204.483 18.5985 204.29 19.088 203.953 19.5206C203.616 19.9531 203.189 20.2801 202.672 20.4974C201.843 20.8477 201.063 20.8582 200.334 20.5291C199.603 20.1999 199.032 19.5206 198.622 18.493H198.62ZM199.652 18.0563C199.964 18.8348 200.365 19.3497 200.849 19.5965C201.336 19.8434 201.83 19.8624 202.331 19.6493C202.83 19.4383 203.165 19.069 203.341 18.5394C203.516 18.0099 203.444 17.3452 203.124 16.5477C202.822 15.7944 202.428 15.2944 201.939 15.0475C201.451 14.8007 200.96 14.7817 200.465 14.9906C199.964 15.2037 199.624 15.5729 199.449 16.0983C199.273 16.6236 199.34 17.2777 199.652 18.0563Z" fill="white"/>
<path d="M206.564 18.6892L204.125 12.6021L205.023 12.2223L205.365 13.0769C205.431 12.6992 205.583 12.3553 205.819 12.043C206.055 11.7307 206.369 11.4923 206.763 11.3256C207.203 11.1399 207.599 11.0809 207.954 11.1505C208.309 11.2201 208.613 11.3974 208.861 11.6843C209.046 10.7749 209.512 10.1631 210.263 9.84446C210.851 9.59549 211.37 9.57228 211.819 9.77273C212.269 9.97317 212.634 10.4205 212.914 11.1167L214.587 15.2944L213.589 15.7164L212.054 11.8826C211.887 11.4712 211.737 11.1864 211.598 11.0323C211.46 10.8783 211.284 10.7834 211.068 10.7433C210.853 10.7053 210.631 10.7348 210.399 10.8319C209.982 11.0091 209.693 11.2961 209.533 11.697C209.373 12.0978 209.418 12.6127 209.668 13.2393L211.085 16.7755L210.081 17.1996L208.496 13.2456C208.313 12.7878 208.094 12.4776 207.837 12.3173C207.582 12.1569 207.268 12.1548 206.897 12.3131C206.614 12.4333 206.384 12.619 206.205 12.8743C206.026 13.1296 205.942 13.425 205.952 13.7647C205.963 14.1044 206.078 14.5517 206.301 15.1045L207.566 18.263L206.562 18.6871L206.564 18.6892Z" fill="white"/>
<path d="M101.386 3.31432V2.521H106.325V11.7561C106.67 11.3299 106.965 10.9121 107.312 10.5471C108.858 8.92036 110.724 8.40344 112.844 9.0132C114.191 9.40142 115.059 10.4057 115.681 11.6485C116.201 12.6887 116.431 13.8133 116.505 14.9716C116.613 16.6996 116.478 18.4002 115.842 20.0227C115.32 21.3478 114.538 22.4681 113.313 23.196C111.325 24.3776 108.671 24.0843 106.916 22.5124C106.746 22.3605 106.592 22.1896 106.421 22.0377C106.368 21.9892 106.288 21.9512 106.222 21.9533C106.193 21.9533 106.152 22.063 106.14 22.1284C106.05 22.601 105.968 23.0758 105.871 23.5463C105.857 23.6201 105.773 23.7341 105.721 23.7341C105.081 23.7467 104.438 23.7425 103.763 23.7425V23.4302C103.763 17.5731 103.767 11.7181 103.757 5.8631C103.757 5.30397 103.691 4.74485 103.633 4.18783C103.601 3.8629 103.404 3.64558 103.089 3.58228C102.621 3.48945 102.151 3.41982 101.681 3.34386C101.589 3.32909 101.492 3.32487 101.388 3.31432H101.386ZM106.333 16.8072C106.333 18.1027 106.331 19.4003 106.337 20.6958C106.337 20.795 106.38 20.9342 106.452 20.987C107.376 21.6769 108.371 22.2191 109.513 22.4006C111.362 22.696 112.695 21.9639 113.337 20.1261C113.664 19.1914 113.772 18.2188 113.801 17.2334C113.84 15.8915 113.789 14.5559 113.444 13.2478C113.239 12.4713 112.933 11.7434 112.337 11.1927C111.516 10.4332 110.535 10.3361 109.5 10.5366C108.263 10.7792 107.322 11.5134 106.52 12.4713C106.38 12.638 106.325 12.8047 106.327 13.0241C106.337 14.2838 106.331 15.5455 106.331 16.8051L106.333 16.8072Z" fill="#253858"/>
<path d="M129.982 22.6411C129.99 22.7382 129.996 22.8352 130.004 22.9323C130.057 23.6243 130.062 23.6433 129.392 23.7805C128.996 23.8607 128.581 23.9197 128.181 23.8965C127.13 23.8353 126.529 23.1686 126.188 22.2023C126.122 22.0187 126.075 21.8288 126.011 21.6115C125.734 21.8605 125.478 22.1052 125.207 22.3331C124.334 23.0652 123.382 23.6307 122.257 23.8459C120.436 24.1961 118.594 23.3585 117.771 21.8056C116.884 20.1345 117.114 17.4845 119.364 16.1363C120.307 15.5708 121.341 15.3028 122.409 15.1889C123.306 15.094 124.209 15.0771 125.11 15.0264C125.213 15.0201 125.313 15.0264 125.447 15.0264C125.41 13.8048 125.558 12.6064 125.192 11.4396C124.854 10.3572 124.041 9.75166 122.934 9.8023C122.499 9.8234 122.053 9.89302 121.639 10.0281C120.678 10.3403 120.206 11.0704 120.126 12.0852C120.112 12.2603 120.103 12.4376 120.091 12.6296H118.352V12.2941C118.352 11.5978 118.348 10.8995 118.358 10.2032C118.358 10.1125 118.422 9.96898 118.494 9.93733C120.278 9.144 122.123 8.66083 124.086 8.80431C124.854 8.86128 125.599 9.03007 126.272 9.43728C127.253 10.0302 127.74 10.9543 127.898 12.0768C127.962 12.5262 127.986 12.9819 127.988 13.4377C127.996 15.5117 127.978 17.5858 128.001 19.6577C128.007 20.3413 128.066 21.0291 128.179 21.7022C128.29 22.3563 128.655 22.6812 129.22 22.7234C129.464 22.7424 129.717 22.6728 129.984 22.6432L129.982 22.6411ZM125.443 15.8282C124.225 15.8219 123.053 15.8641 121.953 16.3958C120.584 17.0583 119.951 18.1322 120.009 19.6872C120.07 21.3393 121.563 22.601 123.148 22.3415C123.928 22.2149 124.607 21.8436 125.266 21.4216C125.404 21.333 125.445 21.2359 125.445 21.0756C125.439 19.4847 125.441 17.8959 125.441 16.3051C125.441 16.1637 125.441 16.0202 125.441 15.8282H125.443Z" fill="#253858"/>
<path d="M162.933 12.6423H161.221C161.213 12.5664 161.201 12.4988 161.201 12.4313C161.201 11.6886 161.195 10.9481 161.207 10.2054C161.207 10.1146 161.271 9.97117 161.34 9.93952C163.124 9.1462 164.972 8.65248 166.932 8.81494C167.454 8.85925 167.985 8.97107 168.48 9.14831C169.841 9.63359 170.539 10.6885 170.744 12.1191C170.794 12.4693 170.806 12.8301 170.806 13.1867C170.812 15.3852 170.796 17.5859 170.816 19.7844C170.822 20.4047 170.88 21.0356 170.999 21.6432C171.18 22.5589 171.695 22.8649 172.582 22.675C172.649 22.6602 172.715 22.6475 172.814 22.6285C172.84 22.9218 172.869 23.2024 172.883 23.4809C172.886 23.5295 172.826 23.6139 172.779 23.6286C172.087 23.8607 171.383 24.0169 170.654 23.8523C169.862 23.6708 169.383 23.1223 169.09 22.3796C168.995 22.1412 168.93 21.8901 168.844 21.6158C168.581 21.8542 168.328 22.0926 168.065 22.3163C167.189 23.0569 166.234 23.6624 165.093 23.8417C163.33 24.1181 161.835 23.6223 160.772 22.08C159.702 20.525 159.752 17.5373 162.285 16.0878C163.204 15.5624 164.206 15.2987 165.241 15.1932C166.154 15.0983 167.076 15.0814 167.996 15.0307C168.072 15.0265 168.15 15.0307 168.211 15.0307C168.234 14.9949 168.252 14.9801 168.252 14.9674C168.234 14.0391 168.265 13.1065 168.18 12.1845C168.1 11.2856 167.77 10.4712 166.91 10.0429C166.169 9.67578 165.384 9.69688 164.627 9.96906C163.319 10.4396 163.028 11.1021 162.933 12.4567C162.929 12.5073 162.933 12.56 162.933 12.6423ZM168.248 15.8346C167.142 15.8262 166.06 15.8599 165.036 16.2925C163.646 16.8769 162.857 17.8833 162.839 19.4953C162.821 21.2297 164.34 22.6307 166 22.3479C166.762 22.2171 167.425 21.8563 168.074 21.4512C168.219 21.3605 168.265 21.255 168.263 21.082C168.256 19.4299 168.258 17.7757 168.258 16.1237C168.258 16.0372 168.25 15.9507 168.246 15.8346H168.248Z" fill="#253858"/>
<path d="M153.798 15.0096C153.747 13.7964 153.932 12.5853 153.542 11.4122C153.185 10.3319 152.4 9.78337 151.292 9.78759C150.694 9.78759 150.144 9.91418 149.615 10.1948C148.952 10.545 148.625 11.1189 148.518 11.849C148.482 12.1022 148.465 12.3596 148.438 12.6296H146.757C146.749 12.5727 146.732 12.5157 146.732 12.4566C146.732 11.6971 146.726 10.9375 146.739 10.1758C146.739 10.0893 146.817 9.95427 146.891 9.92262C148.254 9.31497 149.664 8.88243 151.156 8.79804C151.973 8.75162 152.786 8.77694 153.587 8.99848C155.182 9.43945 156.151 10.6126 156.29 12.3047C156.323 12.7035 156.338 13.1065 156.34 13.5074C156.348 15.8135 156.344 18.1196 156.362 20.4279C156.366 20.8351 156.43 21.2465 156.514 21.6453C156.697 22.5083 157.19 22.8311 158.035 22.6855C158.12 22.6707 158.206 22.6496 158.339 22.6222C158.366 22.9471 158.393 23.2594 158.421 23.5864C157.565 23.8734 156.713 24.0949 155.843 23.7362C154.931 23.3607 154.609 22.5209 154.377 21.6242C153.977 21.966 153.603 22.3099 153.205 22.6201C152.296 23.3269 151.294 23.8206 150.136 23.905C147.827 24.0759 146.039 22.561 145.723 20.6093C145.404 18.6471 146.205 16.8389 148.176 15.8916C149.132 15.4316 150.155 15.2227 151.197 15.1341C151.984 15.0666 152.776 15.0603 153.564 15.0265C153.632 15.0244 153.7 15.0181 153.796 15.0117L153.798 15.0096ZM153.792 15.8262C152.614 15.8262 151.472 15.8557 150.401 16.3536C149.073 16.9697 148.354 17.993 148.362 19.5354C148.371 21.2655 149.861 22.6053 151.522 22.3352C152.275 22.2129 152.932 21.8542 153.575 21.4533C153.735 21.3541 153.798 21.2486 153.796 21.0503C153.788 19.4046 153.792 17.761 153.792 16.1152V15.8241V15.8262Z" fill="#253858"/>
<path d="M135.304 22.9428H144.52V23.9197H132.244C132.235 23.4893 132.215 23.1074 132.494 22.7107C135.366 18.6344 138.213 14.539 141.067 10.45C141.1 10.4036 141.13 10.353 141.19 10.2623H140.872C139.106 10.2623 137.341 10.2601 135.575 10.2686C135.22 10.2686 134.867 10.3213 134.512 10.3488C134.245 10.3699 134.097 10.5344 134.06 10.7876C134.021 11.0514 134.007 11.3193 133.999 11.5873C133.989 11.9143 133.997 12.2435 133.997 12.5874H132.615V9.45837H144.16C144.205 9.9099 144.166 10.2897 143.885 10.6885C141.065 14.691 138.267 18.7125 135.463 22.7297C135.423 22.7867 135.38 22.8416 135.304 22.9449V22.9428Z" fill="#253858"/>
<path d="M173.795 10.1947V9.45835H178.74V12.0789C180.038 10.0407 181.698 8.80006 184.207 9.21782V13.1971H182.811C182.762 12.8005 182.725 12.3954 182.655 11.9945C182.544 11.3509 182.446 11.2687 181.809 11.2813C180.657 11.3045 179.816 11.9059 179.124 12.8026C178.847 13.1613 178.728 13.5305 178.734 13.9989C178.759 16.1447 178.738 18.2883 178.748 20.4341C178.75 20.9679 178.802 21.5017 178.843 22.0356C178.882 22.5314 179.138 22.8521 179.625 22.928C180.079 22.9977 180.536 23.0378 180.992 23.0884C181.144 23.1053 181.3 23.1074 181.462 23.1158V23.9218H173.781C173.781 23.6876 173.766 23.4576 173.791 23.2319C173.797 23.177 173.928 23.1074 174.01 23.0947C174.439 23.0293 174.871 22.9892 175.3 22.9217C175.778 22.8458 176.065 22.5651 176.102 22.0545C176.139 21.5566 176.193 21.0587 176.195 20.5586C176.205 17.9761 176.207 15.3935 176.195 12.8089C176.193 12.2582 176.127 11.7054 176.071 11.1568C176.037 10.8108 175.837 10.5766 175.503 10.507C174.944 10.3909 174.382 10.3002 173.793 10.1926L173.795 10.1947Z" fill="#253858"/>
<path d="M0.123779 9.6018C0.591824 9.60813 1.06192 9.61657 1.53202 9.61868C2.62823 9.62079 3.72444 9.6229 4.81859 9.61446C5.01361 9.61446 5.07314 9.67143 5.06904 9.87187C5.05877 10.5681 5.06493 11.2665 5.06493 11.9628V12.2497C5.08751 12.2603 5.10804 12.2687 5.13062 12.2793C5.18194 12.2097 5.23737 12.1421 5.28253 12.0704C6.02771 10.931 6.96174 10.0069 8.25297 9.57226C10.6363 8.7705 13.1921 9.59125 14.3068 12.6506C14.8508 14.1444 14.9719 15.6952 14.8651 17.265C14.7604 18.7968 14.4484 20.2927 13.6827 21.6346C12.568 23.5905 10.8929 24.5231 8.68201 24.3227C7.42979 24.2087 6.35616 23.6369 5.44881 22.7445C5.34412 22.6411 5.262 22.5166 5.16963 22.4005C5.14089 22.4174 5.11215 22.4343 5.08546 22.4491V29.2978H2.58717C2.58101 29.2282 2.57075 29.1607 2.57075 29.0932C2.57485 23.6855 2.58306 18.2778 2.58306 12.8701C2.58306 12.4607 2.55433 12.0472 2.48863 11.6442C2.37778 10.9564 2.05138 10.6293 1.38627 10.5048C1.06192 10.4437 0.733469 10.4099 0.405016 10.3909C0.232579 10.3804 0.179206 10.3171 0.179206 10.1483C0.179206 9.9837 0.14636 9.81701 0.127885 9.65244V9.59969L0.123779 9.6018ZM5.06493 17.2713C5.06493 18.5668 5.06083 19.8623 5.07314 21.1578C5.07314 21.2844 5.1532 21.4553 5.25174 21.5291C6.18988 22.2444 7.21219 22.7867 8.3864 22.947C9.29581 23.0715 10.1354 22.8964 10.8231 22.2191C11.3671 21.6832 11.6771 21.008 11.8721 20.278C12.3627 18.4487 12.3894 16.5962 12.0589 14.7373C11.8885 13.7837 11.597 12.8722 11.0469 12.0662C10.3058 10.9817 9.29581 10.585 8.07232 10.9395C6.83857 11.2982 5.88401 12.0788 5.13883 13.1359C5.0793 13.2203 5.06698 13.3532 5.06698 13.4629C5.06288 14.731 5.06288 16.0012 5.06288 17.2692L5.06493 17.2713Z" fill="#0065FF"/>
<path d="M75.1114 24.1771C71.7366 24.2088 69.1603 22.0482 68.452 18.5901C67.9655 16.2143 68.2242 13.9377 69.5175 11.8679C70.6219 10.0998 72.2416 9.14611 74.2718 8.92879C75.7971 8.76422 77.2546 8.99209 78.5889 9.8023C80.2312 10.8003 81.196 12.3236 81.6599 14.1909C82.245 16.5498 82.0274 18.8285 80.8285 20.949C79.7816 22.7994 78.1886 23.8543 76.1173 24.1349C76.0208 24.1476 75.9264 24.1729 75.8299 24.175C75.5918 24.1814 75.3536 24.175 75.1135 24.175L75.1114 24.1771ZM79.291 16.2481C79.254 15.8767 79.213 15.2142 79.1124 14.5623C78.9132 13.2752 78.515 12.0641 77.7246 11.0176C76.5463 9.46049 74.6187 9.16299 73.151 10.3256C72.455 10.8784 71.9932 11.621 71.6688 12.4481C70.8395 14.5559 70.7286 16.7313 71.1577 18.9424C71.3937 20.1578 71.8248 21.2908 72.6254 22.2466C73.7011 23.5315 75.444 23.8269 76.7906 22.9386C77.4722 22.4892 77.9464 21.8499 78.3097 21.1199C79.0261 19.6809 79.2561 18.1322 79.291 16.246V16.2481Z" fill="#0065FF"/>
<path d="M61.3616 10.2813V9.54919H66.2227C66.2638 14.3387 66.3048 19.1177 66.3459 23.9198H63.6567C63.6567 23.7067 63.6567 23.4873 63.6567 23.2657C63.6752 21.2191 63.6957 19.1725 63.7142 17.1259C63.7285 15.5878 63.745 14.0518 63.7491 12.5136C63.7491 12.195 63.7183 11.8701 63.6608 11.5557C63.5335 10.8595 63.2051 10.5387 62.5297 10.4121C62.3429 10.3763 62.152 10.3489 61.9631 10.3256C61.7742 10.3045 61.5833 10.294 61.3637 10.2771L61.3616 10.2813Z" fill="#0065FF"/>
<path d="M66.2227 4.29126V6.79573H63.7758V4.29126H66.2227Z" fill="#0065FF"/>
<path d="M19.4799 16.5983C19.5271 18.5078 20.0013 19.9552 20.9066 20.9426C21.8099 21.93 22.9964 22.4238 24.4642 22.4238C25.1231 22.4238 25.7759 22.3119 26.4267 22.0904C27.0754 21.8689 27.72 21.5334 28.3604 21.0882L28.6006 21.3055L28.149 22.525C27.3669 22.9892 26.5601 23.3395 25.7308 23.5716C24.9014 23.8037 24.0475 23.9197 23.173 23.9197C21.2597 23.9197 19.716 23.2973 18.5418 22.0524C17.3676 20.8076 16.7805 19.1196 16.7805 16.9886C16.7805 15.3619 17.111 13.9525 17.7699 12.7604C18.2031 11.9755 19.0037 11.2497 20.1738 10.5808C21.3418 9.91198 22.4791 9.57861 23.5815 9.57861C25.2504 9.57861 26.5724 10.0829 27.5475 11.0893C28.5226 12.0979 29.0112 13.5073 29.0112 15.3176L28.9825 16.1742C28.3604 16.3303 27.7692 16.4316 27.2027 16.4801C26.1947 16.5582 24.7988 16.5962 23.0108 16.5962H19.482L19.4799 16.5983ZM19.5087 15.5075C20.9703 15.575 22.5817 15.6087 24.3431 15.6087C25.0492 15.6087 25.7328 15.575 26.3938 15.5075V14.693C26.3938 13.8406 26.2296 13.0325 25.8991 12.2666C25.6918 11.7919 25.3284 11.3974 24.8111 11.083C24.2917 10.7686 23.6944 10.6104 23.0149 10.6104C21.9597 10.6104 21.116 11.007 20.4838 11.8025C19.8515 12.5958 19.5271 13.8322 19.5087 15.5075Z" fill="#0065FF"/>
<path d="M35.6357 12.6444L37.7727 10.6969C38.0272 10.4648 38.2962 10.2939 38.5795 10.1884C39.2015 9.97531 39.8255 9.86771 40.4475 9.86771C41.4575 9.86771 42.33 10.0787 43.0669 10.5007C43.8039 10.9227 44.3315 11.4691 44.6517 12.1422C44.972 12.8153 45.1341 13.8681 45.1341 15.3028L45.0766 19.8792C45.0766 21.4596 45.1423 22.3689 45.2737 22.6116C45.4523 22.9217 45.7992 23.0758 46.3145 23.0758H47.3265V23.9197C46.3207 23.8522 45.4523 23.8185 44.7174 23.8185C43.9825 23.8185 43.2373 23.8522 42.4203 23.9197C42.5989 22.0314 42.6892 19.4784 42.6892 16.2607C42.6892 14.9631 42.5784 14.0432 42.3566 13.4989C42.1349 12.9566 41.7613 12.5199 41.2379 12.1907C40.7144 11.8616 40.0821 11.697 39.3472 11.697C38.4316 11.697 37.6536 11.9354 37.0173 12.4102C36.3788 12.8849 35.9847 13.4081 35.8348 13.9799C35.7404 14.3576 35.6932 15.345 35.6932 16.9444C35.6932 18.7167 35.7075 20.3645 35.7363 21.8858C35.7466 22.3415 35.8122 22.6264 35.9354 22.7424C36.1715 22.966 36.5615 23.0758 37.1014 23.0758H38.1114V23.9197C36.5164 23.8522 35.2457 23.8185 34.3014 23.8185C33.2996 23.8185 32.1623 23.8522 30.8875 23.9197V23.0758H31.9057C32.6037 23.0758 33.0101 22.9091 33.1292 22.5757C33.2462 22.2423 33.3057 20.2316 33.3057 16.5456C33.3057 14.8914 33.2873 13.5938 33.2483 12.657C33.2298 12.3469 33.1538 12.1359 33.0224 12.0177C32.8911 11.9017 32.5175 11.8426 31.9057 11.8426H30.8875V10.9986C31.6963 10.9016 32.4189 10.7707 33.0573 10.6062C33.6958 10.4416 34.4163 10.1905 35.2149 9.85083C35.299 9.81285 35.3791 9.79175 35.455 9.79175C35.6049 9.79175 35.6809 9.90357 35.6809 10.1251L35.6665 10.6779L35.6378 12.6401L35.6357 12.6444Z" fill="#0065FF"/>
<path d="M50.3359 19.1851V20.1324C50.3359 20.892 50.4016 21.3625 50.533 21.5482C50.7772 21.8583 51.2556 22.1601 51.9679 22.4533C52.6802 22.7445 53.4131 22.8901 54.1665 22.8901C55.1374 22.8901 55.9298 22.6221 56.5416 22.082C57.1533 21.544 57.4612 20.9004 57.4612 20.1535C57.4612 19.5606 57.2827 19.0859 56.9234 18.7272C56.5642 18.3685 55.8826 18.0816 54.8726 17.8685C52.9964 17.4803 51.7564 17.1406 51.155 16.8494C50.5514 16.5582 50.0998 16.17 49.798 15.6847C49.4963 15.1995 49.3464 14.6129 49.3464 13.9251C49.3464 12.6359 49.8022 11.5873 50.7136 10.7834C51.6251 9.97953 52.9163 9.57654 54.5873 9.57654C55.9093 9.57654 57.2252 9.84872 58.539 10.391C58.4569 11.0493 58.3912 12.1549 58.3419 13.7035H57.4941C57.4756 12.8511 57.3853 12.2899 57.2272 12.0177C57.0117 11.659 56.6155 11.3341 56.0427 11.045C55.47 10.7539 54.8583 10.6083 54.2096 10.6083C53.3535 10.6083 52.67 10.834 52.1567 11.2856C51.6435 11.7371 51.389 12.3025 51.389 12.9798C51.389 13.6571 51.5922 14.1192 51.9966 14.4483C52.401 14.788 53.5239 15.1467 55.3612 15.5244C56.7181 15.805 57.6132 16.0666 58.0484 16.3093C58.4815 16.5519 58.8305 16.919 59.0953 17.4128C59.3601 17.9065 59.4915 18.4719 59.4915 19.1112C59.4915 20.4173 58.9475 21.5461 57.8574 22.4934C56.7694 23.4429 55.314 23.9155 53.4952 23.9155C52.3353 23.9155 51.0359 23.7298 49.5928 23.3564C49.3382 23.2889 49.2109 23.1876 49.2109 23.0526L49.254 22.8479C49.291 22.7023 49.3238 22.4449 49.3526 22.0757C49.4367 21.1346 49.4799 20.4004 49.4799 19.8771L49.4655 19.1788H50.342L50.3359 19.1851Z" fill="#0065FF"/>
<path d="M88.5965 12.6444L90.7335 10.6969C90.9881 10.4648 91.257 10.2939 91.5403 10.1884C92.1623 9.97531 92.7863 9.86771 93.4083 9.86771C94.4183 9.86771 95.2908 10.0787 96.0277 10.5007C96.7647 10.9227 97.2923 11.4691 97.6125 12.1422C97.9328 12.8153 98.0949 13.8681 98.0949 15.3028L98.0375 19.8792C98.0375 21.4596 98.1032 22.3689 98.2345 22.6116C98.4131 22.9217 98.7601 23.0758 99.2753 23.0758H100.287V23.9197C99.2815 23.8522 98.4131 23.8185 97.6782 23.8185C96.9433 23.8185 96.1981 23.8522 95.3811 23.9197C95.5597 22.0314 95.65 19.4784 95.65 16.2607C95.65 14.9631 95.5392 14.0432 95.3175 13.4989C95.0958 12.9566 94.7221 12.5199 94.1987 12.1907C93.6752 11.8616 93.0429 11.697 92.308 11.697C91.3925 11.697 90.6144 11.9354 89.9781 12.4102C89.3417 12.8849 88.9455 13.4081 88.7956 13.9799C88.7012 14.3576 88.654 15.345 88.654 16.9444C88.654 18.7167 88.6684 20.3645 88.6971 21.8858C88.7074 22.3415 88.7731 22.6264 88.8962 22.7424C89.1323 22.966 89.5223 23.0758 90.0622 23.0758H91.0722V23.9197C89.4772 23.8522 88.2065 23.8185 87.2622 23.8185C86.2604 23.8185 85.1231 23.8522 83.8483 23.9197V23.0758H84.8665C85.5645 23.0758 85.9709 22.9091 86.09 22.5757C86.207 22.2423 86.2666 20.2316 86.2666 16.5456C86.2666 14.8914 86.2481 13.5938 86.2091 12.657C86.1906 12.3469 86.1146 12.1359 85.9833 12.0177C85.8519 11.9017 85.4783 11.8426 84.8665 11.8426H83.8483V10.9986C84.6571 10.9016 85.3797 10.7707 86.0182 10.6062C86.6566 10.4416 87.3771 10.1905 88.1757 9.85083C88.2598 9.81285 88.3399 9.79175 88.4159 9.79175C88.5657 9.79175 88.6417 9.90357 88.6417 10.1251L88.6273 10.6779L88.5986 12.6401L88.5965 12.6444Z" fill="#0065FF"/>
</g>
<defs>
<clipPath id="clip0_2142_3559">
<rect width="218.238" height="31.5749" fill="white" transform="translate(0.123779 0.124146)"/>
</clipPath>
</defs>
</svg>
