<svg width="75" height="75" viewBox="0 0 75 75" fill="none" xmlns="http://www.w3.org/2000/svg">
  <defs>
    <filter id="blurAll" x="-20%" y="-20%" width="140%" height="140%">
      <feGaussianBlur stdDeviation="2.4" />
    </filter>
  </defs>
  <g filter="url(#blurAll)">
    <rect width="75" height="75" rx="16" fill="#0071BC"/>
    <path fill-rule="evenodd" clip-rule="evenodd" d="M60.5196 47.7787H14.4599C13.655 47.7787 13 47.1282 13 46.3287V28.4499C13 27.6505 13.655 27 14.4599 27H60.5196C61.3244 27 61.9795 27.6505 61.9795 28.4499V46.3287C61.9795 47.1282 61.3244 47.7787 60.5196 47.7787ZM14.4599 27.7631C14.0786 27.7631 13.7684 28.0713 13.7684 28.4499V46.3287C13.7684 46.7073 14.0786 47.0155 14.4599 47.0155H60.5196C60.9009 47.0155 61.211 46.7073 61.211 46.3287V28.4499C61.211 28.0713 60.9009 27.7631 60.5196 27.7631H14.4599Z" fill="#F7931E"/>
    <path d="M47.1753 42.894L50.0321 37.0381C50.8832 35.3478 51.0047 34.563 51.0047 33.6775C51.0047 32.3897 50.7614 31.7457 50.0522 31.7457C49.3635 31.7457 49.0594 32.4299 49.0594 33.6775H47.2968C47.2968 31.0616 48.695 30.156 50.0321 30.156C51.6934 30.156 52.7673 31.1421 52.7673 33.5971C52.7673 34.8648 52.3418 35.9917 51.5719 37.5614L48.9987 42.8538H52.7875V44.4435H47.1753V42.894Z" fill="white"/>
    <path fill-rule="evenodd" clip-rule="evenodd" d="M56.0701 41.0226H52.7271V39.5134L56.1916 30.3573H57.8328V39.4329H58.6839V41.0226H57.8328V44.4436H56.0701V41.0226ZM56.0701 39.4329V34.7241L54.3884 39.4329H56.0701Z" fill="white"/>
    <path d="M44.389 36.0486L43.0791 37.3496L44.389 38.6506L45.6989 37.3496L44.389 36.0486Z" fill="#F7931E"/>
    <path d="M16.2969 41.908V32.8928C16.2969 31.1823 17.0669 30.156 18.9714 30.156C20.8961 30.156 21.666 31.1823 21.666 32.8928V34.1806H19.8831V32.5105C19.8831 32.0275 19.64 31.7659 18.9714 31.7659C18.323 31.7659 18.0596 32.0275 18.0596 32.5105V42.2903C18.0596 42.7732 18.323 43.0349 18.9714 43.0349C19.64 43.0349 19.8831 42.7732 19.8831 42.2903V40.62H21.666V41.908C21.666 43.6185 20.8961 44.6448 18.9714 44.6448C17.0669 44.6448 16.2969 43.6185 16.2969 41.908Z" fill="white"/>
    <path fill-rule="evenodd" clip-rule="evenodd" d="M24.26 30.3573H26.3266L28.3122 44.4436H26.5697L26.2253 41.6464H24.3613L24.0168 44.4436H22.2744L24.26 30.3573ZM26.043 40.0365L25.2933 33.5971L24.5436 40.0365H26.043Z" fill="white"/>
    <path fill-rule="evenodd" clip-rule="evenodd" d="M29.3047 30.3573H32.6478C33.7419 30.3573 34.4713 31.0617 34.4713 32.1281V36.1327C34.4713 36.9175 34.2484 37.5413 33.3975 37.7224C34.4511 38.0243 34.5929 38.628 34.5929 39.5537V42.7331C34.5929 43.3367 34.7348 43.9203 34.9981 44.4436H33.3772C32.8706 43.8198 32.8099 43.1758 32.8099 41.9483V39.4329C32.8099 38.6079 32.3844 38.3262 31.7158 38.3262H31.0877V44.4436H29.3047V30.3573ZM32.2831 36.7363C32.587 36.7363 32.6883 36.6357 32.6883 36.3339V32.3696C32.6883 32.0677 32.587 31.9672 32.2831 31.9672H31.0877V36.7363H32.2831Z" fill="white"/>
    <path d="M35.8901 42.1897V40.4189H37.6529V42.2903C37.6529 42.7732 37.9163 43.0349 38.4633 43.0349C39.0103 43.0349 39.2738 42.7732 39.2738 42.2903V40.62C39.2738 40.0164 39.0914 39.6541 38.7469 39.2316L36.6196 36.6356C36.1333 36.032 35.8901 35.4082 35.8901 34.5831V32.6111C35.8901 31.2024 36.7817 30.156 38.4835 30.156C40.1855 30.156 41.0568 31.2024 41.0568 32.6111V34.3819H39.2941V32.5105C39.2941 32.0275 39.0306 31.7659 38.4835 31.7659C37.9365 31.7659 37.6731 32.0275 37.6731 32.5105V34.1806C37.6731 34.7844 37.8555 35.1465 38.1999 35.5692L40.307 38.165C40.8136 38.7688 41.0365 39.3925 41.0365 40.2176V42.1897C41.0365 43.5983 40.1652 44.6448 38.4633 44.6448C36.7613 44.6448 35.8901 43.5983 35.8901 42.1897Z" fill="white"/>
  </g>
</svg>
