<svg width="512" height="512" viewBox="0 0 512 512" fill="none" xmlns="http://www.w3.org/2000/svg">
  <rect width="512" height="512" rx="80" fill="#111111"/>
  <g transform="translate(96, 152) scale(4)">
    
<path d="M16.7005 30.9146C15.6091 30.9146 14.6778 30.6715 13.9066 30.1854C13.1354 29.6927 12.544 29.0226 12.1322 28.1752C11.727 27.3278 11.5212 26.3687 11.5146 25.2979C11.5212 24.2074 11.7336 23.2418 12.1518 22.4009C12.5766 21.5535 13.1779 20.89 13.9556 20.4105C14.7333 19.9244 15.6581 19.6813 16.7299 19.6813C17.9324 19.6813 18.9486 19.9868 19.7786 20.5977C20.6152 21.2021 21.1609 22.0298 21.4157 23.0808L19.063 23.7213C18.88 23.1498 18.5761 22.7064 18.1513 22.3911C17.7265 22.0692 17.2429 21.9082 16.7005 21.9082C16.0861 21.9082 15.5797 22.0561 15.181 22.3517C14.7823 22.6407 14.4882 23.0414 14.2987 23.5538C14.1092 24.0662 14.0144 24.6476 14.0144 25.2979C14.0144 26.3096 14.2399 27.1274 14.6908 27.7515C15.1418 28.3756 15.8117 28.6876 16.7005 28.6876C17.3279 28.6876 17.8213 28.5431 18.1807 28.254C18.5467 27.965 18.8212 27.5479 19.0042 27.0026L21.4157 27.5446C21.089 28.6285 20.5171 29.4628 19.7002 30.0474C18.8833 30.6255 17.8834 30.9146 16.7005 30.9146Z" fill="white"/>
<path d="M30.7031 30.6189V25.495C30.7031 25.16 30.6802 24.7888 30.6344 24.3815C30.5887 23.9742 30.4809 23.5834 30.3109 23.2089C30.1476 22.8279 29.8992 22.5159 29.5659 22.2728C29.2391 22.0298 28.7947 21.9082 28.2327 21.9082C27.9321 21.9082 27.6347 21.9575 27.3406 22.0561C27.0465 22.1546 26.7786 22.3254 26.5368 22.5684C26.3015 22.8049 26.112 23.1334 25.9682 23.5538C25.8244 23.9677 25.7525 24.4998 25.7525 25.1501L24.3507 24.549C24.3507 23.6425 24.5239 22.8214 24.8702 22.0856C25.2232 21.3499 25.7395 20.7652 26.4191 20.3316C27.0988 19.8915 27.9353 19.6714 28.9287 19.6714C29.713 19.6714 30.36 19.8028 30.8697 20.0656C31.3795 20.3284 31.7847 20.6634 32.0853 21.0707C32.3859 21.478 32.6081 21.9115 32.7519 22.3714C32.8957 22.8312 32.9872 23.2681 33.0264 23.6819C33.0721 24.0892 33.095 24.4209 33.095 24.6771V30.6189H30.7031ZM23.3606 30.6189V16.4296H25.4682V23.8987H25.7525V30.6189H23.3606Z" fill="white"/>
<path d="M38.6137 30.9146C37.849 30.9146 37.202 30.77 36.6727 30.481C36.1433 30.1854 35.7414 29.7945 35.4669 29.3084C35.1989 28.8223 35.065 28.2869 35.065 27.7022C35.065 27.1898 35.1499 26.73 35.3199 26.3227C35.4898 25.9089 35.7512 25.5541 36.1041 25.2585C36.457 24.9563 36.9145 24.71 37.4765 24.5195C37.9013 24.3815 38.398 24.2567 38.9666 24.145C39.5417 24.0334 40.1626 23.9315 40.8292 23.8396C41.5023 23.741 42.2049 23.6359 42.9368 23.5243L42.0938 24.0071C42.1003 23.2713 41.9369 22.7294 41.6036 22.3812C41.2703 22.0331 40.7083 21.859 39.9175 21.859C39.4404 21.859 38.9797 21.9707 38.5353 22.194C38.0908 22.4174 37.7804 22.8016 37.604 23.3469L35.4473 22.667C35.7087 21.767 36.2054 21.0444 36.9374 20.4992C37.6759 19.9539 38.6692 19.6813 39.9175 19.6813C40.8586 19.6813 41.6853 19.8357 42.3977 20.1444C43.1166 20.4532 43.6492 20.959 43.9956 21.6619C44.1851 22.0363 44.2995 22.4206 44.3387 22.8148C44.3779 23.2024 44.3975 23.6261 44.3975 24.0859V30.6189H42.329V28.3132L42.6721 28.6876C42.1951 29.4562 41.6363 30.0212 40.9958 30.3825C40.3619 30.7372 39.5678 30.9146 38.6137 30.9146ZM39.0842 29.0226C39.6201 29.0226 40.0776 28.9274 40.4567 28.7369C40.8357 28.5464 41.1363 28.3132 41.3585 28.0373C41.5873 27.7614 41.7409 27.5019 41.8193 27.2588C41.9435 26.9566 42.0121 26.6118 42.0251 26.2242C42.0448 25.83 42.0546 25.5114 42.0546 25.2684L42.78 25.4851C42.0676 25.5968 41.4566 25.6954 40.9468 25.7808C40.4371 25.8662 39.9992 25.9483 39.6332 26.0271C39.2672 26.0994 38.9437 26.1815 38.6627 26.2734C38.3882 26.372 38.1562 26.4869 37.9667 26.6183C37.7772 26.7497 37.6301 26.9008 37.5255 27.0716C37.4275 27.2424 37.3785 27.4428 37.3785 27.6727C37.3785 27.9354 37.4438 28.1686 37.5746 28.3723C37.7053 28.5694 37.8948 28.727 38.1431 28.8453C38.398 28.9635 38.7117 29.0226 39.0842 29.0226Z" fill="white"/>
<path d="M47.1457 30.6189V16.134H49.5083V30.6189H47.1457Z" fill="white"/>
<path d="M52.6408 30.6189V16.134H55.0033V30.6189H52.6408Z" fill="white"/>
<path d="M60.9003 30.9146C60.1357 30.9146 59.4887 30.77 58.9593 30.481C58.43 30.1854 58.028 29.7945 57.7535 29.3084C57.4856 28.8223 57.3516 28.2869 57.3516 27.7022C57.3516 27.1898 57.4366 26.73 57.6065 26.3227C57.7764 25.9089 58.0378 25.5541 58.3907 25.2585C58.7437 24.9563 59.2011 24.71 59.7632 24.5195C60.188 24.3815 60.6847 24.2567 61.2532 24.145C61.8284 24.0334 62.4492 23.9315 63.1158 23.8396C63.789 23.741 64.4915 23.6359 65.2235 23.5243L64.3804 24.0071C64.3869 23.2713 64.2236 22.7294 63.8903 22.3812C63.557 22.0331 62.9949 21.859 62.2041 21.859C61.7271 21.859 61.2663 21.9707 60.8219 22.194C60.3775 22.4174 60.0671 22.8016 59.8906 23.3469L57.7339 22.667C57.9954 21.767 58.492 21.0444 59.224 20.4992C59.9625 19.9539 60.9559 19.6813 62.2041 19.6813C63.1452 19.6813 63.972 19.8357 64.6843 20.1444C65.4032 20.4532 65.9358 20.959 66.2822 21.6619C66.4717 22.0363 66.5861 22.4206 66.6253 22.8148C66.6645 23.2024 66.6841 23.6261 66.6841 24.0859V30.6189H64.6157V28.3132L64.9588 28.6876C64.4817 29.4562 63.9229 30.0212 63.2825 30.3825C62.6485 30.7372 61.8545 30.9146 60.9003 30.9146ZM61.3709 29.0226C61.9068 29.0226 62.3643 28.9274 62.7433 28.7369C63.1224 28.5464 63.423 28.3132 63.6452 28.0373C63.8739 27.7614 64.0275 27.5019 64.1059 27.2588C64.2301 26.9566 64.2987 26.6118 64.3118 26.2242C64.3314 25.83 64.3412 25.5114 64.3412 25.2684L65.0666 25.4851C64.3543 25.5968 63.7432 25.6954 63.2335 25.7808C62.7237 25.8662 62.2858 25.9483 61.9198 26.0271C61.5539 26.0994 61.2304 26.1815 60.9493 26.2734C60.6749 26.372 60.4429 26.4869 60.2533 26.6183C60.0638 26.7497 59.9168 26.9008 59.8122 27.0716C59.7142 27.2424 59.6651 27.4428 59.6651 27.6727C59.6651 27.9354 59.7305 28.1686 59.8612 28.3723C59.9919 28.5694 60.1814 28.727 60.4298 28.8453C60.6847 28.9635 60.9984 29.0226 61.3709 29.0226Z" fill="white"/>
<path d="M76.5592 30.6189V25.495C76.5592 25.16 76.5363 24.7888 76.4906 24.3815C76.4448 23.9742 76.337 23.5834 76.1671 23.2089C76.0037 22.8279 75.7553 22.5159 75.422 22.2728C75.0953 22.0298 74.6509 21.9082 74.0888 21.9082C73.7882 21.9082 73.4908 21.9575 73.1967 22.0561C72.9026 22.1546 72.6347 22.3254 72.3929 22.5684C72.1576 22.8049 71.9681 23.1334 71.8243 23.5538C71.6805 23.9677 71.6086 24.4998 71.6086 25.1501L70.2068 24.549C70.2068 23.6425 70.38 22.8214 70.7264 22.0856C71.0793 21.3499 71.5956 20.7652 72.2752 20.3316C72.9549 19.8915 73.7915 19.6714 74.7848 19.6714C75.5691 19.6714 76.2161 19.8028 76.7258 20.0656C77.2356 20.3284 77.6408 20.6634 77.9414 21.0707C78.242 21.478 78.4642 21.9115 78.608 22.3714C78.7518 22.8312 78.8433 23.2681 78.8825 23.6819C78.9283 24.0892 78.9511 24.4209 78.9511 24.6771V30.6189H76.5592ZM69.2167 30.6189V19.9769H71.3243V23.2779H71.6086V30.6189H69.2167Z" fill="white"/>
<path d="M6.98827 33.224L2.84928 40.5058C2.47036 41.1725 2.95184 42 3.71865 42H46.0861C46.8563 42 47.3374 41.1659 46.9517 40.4993L44.3462 35.9954" stroke="#EAB308" stroke-width="3.5" stroke-linecap="round"/>
<path d="M18.9419 12.4388L24.0439 3.5143C24.4273 2.84365 25.3939 2.84247 25.7789 3.51219L31.8564 14.0831" stroke="#EAB308" stroke-width="3.5" stroke-linecap="round"/>
<path d="M56.8546 41.9941C56.0593 41.9941 55.4131 41.8173 54.916 41.4638C54.4189 41.1103 54.1166 40.6133 54.0093 39.973L55.4767 39.7491C55.5522 40.0634 55.7193 40.3109 55.9777 40.4916C56.2362 40.6723 56.5623 40.7626 56.956 40.7626C57.302 40.7626 57.5684 40.6958 57.7553 40.5623C57.9462 40.4248 58.0417 40.2382 58.0417 40.0025C58.0417 39.8572 58.0059 39.7413 57.9343 39.6548C57.8667 39.5645 57.7156 39.4781 57.4809 39.3956C57.2463 39.3131 56.8864 39.209 56.4013 39.0833C55.8604 38.9419 55.431 38.7906 55.1128 38.6296C54.7947 38.4646 54.566 38.2702 54.4268 38.0462C54.2876 37.8223 54.2181 37.5513 54.2181 37.2331C54.2181 36.8363 54.3234 36.4907 54.5342 36.196C54.745 35.9014 55.0392 35.6756 55.417 35.5184C55.7948 35.3574 56.2402 35.2768 56.7532 35.2768C57.2543 35.2768 57.6977 35.3534 58.0834 35.5066C58.4731 35.6598 58.7873 35.8779 59.0259 36.1607C59.2645 36.4435 59.4116 36.7755 59.4673 37.1565L57.9999 37.4158C57.9641 37.1447 57.8388 36.9306 57.6241 36.7735C57.4133 36.6164 57.131 36.528 56.7771 36.5083C56.439 36.4887 56.1666 36.5398 55.9599 36.6615C55.7531 36.7794 55.6497 36.9463 55.6497 37.1624C55.6497 37.2842 55.6914 37.3883 55.7749 37.4747C55.8584 37.5611 56.0255 37.6475 56.276 37.7339C56.5305 37.8204 56.9083 37.9264 57.4094 38.0521C57.9224 38.1818 58.332 38.331 58.6382 38.5C58.9484 38.6649 59.171 38.8633 59.3063 39.0951C59.4454 39.3268 59.515 39.6077 59.515 39.9377C59.515 40.578 59.2784 41.0808 58.8052 41.4461C58.3359 41.8114 57.6857 41.9941 56.8546 41.9941Z" fill="white"/>
<path d="M63.7504 41.9941C63.0982 41.9941 62.5256 41.8547 62.0325 41.5758C61.5394 41.2968 61.1536 40.9099 60.8753 40.415C60.6009 39.92 60.4637 39.3504 60.4637 38.7062C60.4637 38.0109 60.5989 37.4079 60.8693 36.8972C61.1397 36.3826 61.5155 35.9839 61.9967 35.7011C62.4779 35.4183 63.0346 35.2768 63.6669 35.2768C64.335 35.2768 64.9017 35.432 65.3669 35.7423C65.8362 36.0487 66.1842 36.4828 66.4108 37.0445C66.6375 37.6063 66.723 38.2682 66.6673 39.0303H65.2417V38.5117C65.2377 37.8204 65.1144 37.3156 64.8718 36.9974C64.6293 36.6792 64.2475 36.5201 63.7266 36.5201C63.138 36.5201 62.7006 36.7008 62.4142 37.0622C62.1279 37.4197 61.9848 37.9441 61.9848 38.6355C61.9848 39.2797 62.1279 39.7786 62.4142 40.1321C62.7006 40.4857 63.1181 40.6624 63.6669 40.6624C64.0208 40.6624 64.325 40.5858 64.5796 40.4326C64.838 40.2755 65.0369 40.0496 65.1761 39.755L66.5957 40.1793C66.3492 40.7528 65.9674 41.1986 65.4505 41.5168C64.9375 41.835 64.3708 41.9941 63.7504 41.9941ZM61.5314 39.0303V37.9579H65.9635V39.0303H61.5314Z" fill="white"/>
<path d="M71.7742 41.8173C71.3487 41.8959 70.9311 41.9293 70.5215 41.9175C70.1159 41.9097 69.752 41.837 69.4299 41.6995C69.1078 41.5581 68.8632 41.3361 68.6962 41.0337C68.5491 40.7587 68.4715 40.4778 68.4636 40.1911C68.4556 39.9043 68.4516 39.5802 68.4516 39.2188V33.6859H69.8832V39.1363C69.8832 39.3917 69.8852 39.6156 69.8892 39.8081C69.8972 40.0005 69.9389 40.1577 70.0145 40.2794C70.1576 40.5151 70.3863 40.6467 70.7005 40.6742C71.0146 40.7017 71.3725 40.686 71.7742 40.6271V41.8173ZM67.2825 36.5673V35.4536H71.7742V36.5673H67.2825Z" fill="white"/>
<path d="M75.5753 42C75.0981 42 74.7044 41.9214 74.3942 41.7643C74.084 41.6072 73.8375 41.4068 73.6546 41.1633C73.4716 40.9197 73.3364 40.6605 73.2489 40.3855C73.1614 40.1105 73.1038 39.8513 73.076 39.6077C73.0521 39.3602 73.0402 39.1599 73.0402 39.0067V35.4536H74.4956V38.5176C74.4956 38.714 74.5096 38.936 74.5374 39.1835C74.5652 39.427 74.6289 39.6627 74.7283 39.8905C74.8317 40.1145 74.9828 40.2991 75.1816 40.4444C75.3844 40.5898 75.6568 40.6624 75.9988 40.6624C76.1818 40.6624 76.3627 40.633 76.5417 40.5741C76.7206 40.5151 76.8817 40.415 77.0248 40.2735C77.172 40.1282 77.2893 39.9298 77.3768 39.6784C77.4643 39.427 77.508 39.1088 77.508 38.7239L78.361 39.0833C78.361 39.6254 78.2536 40.1164 78.0389 40.5564C77.8281 40.9963 77.5159 41.3479 77.1024 41.6111C76.6888 41.8704 76.1798 42 75.5753 42ZM77.681 41.8173V39.8434H77.508V35.4536H78.9515V41.8173H77.681Z" fill="white"/>


  </g>
</svg>